# xmcd
#
# Track frame offsets:
#	150
#	15575
#	39192
#	59825
#	82757
#	105245
#	119347
#	136485
#	157235
#	174777
#	193505
#	211917
#	225710
#	238435
#	260380
#	275207
#	297592
#	312365
#	332550
#
# Disc length: 4698
#
# Revision: 1
# Processed by: cddbd v1.5.1PL0 Copyright (c) Steve Scherf et al.
# Submitted via: ExactAudioCopy v0.95a3
# Normalized: r0:TDELIM( - )
#
DISCID=13125813
DTITLE=Various Artist - Royal Memphis Soul #4
DYEAR=1996
DGENRE=Soul
TTITLE0=Jean Plum - Back To You
TTITLE1=Al Green - Full Of Fire
TTITLE2=Jean Plum - Today I Sing The Blues
TTITLE3=Syl Johnson - It Ain't Easy
TTITLE4=Ann Peebles - I Needed Somebody
TTITLE5=Quiet Elegance - After You
TTITLE6=Jean Plum - I Love Him
TTITLE7=O.V. Wright - Without You
TTITLE8=Jean Plum - Loneliness
TTITLE9=Quiet Elegance - Roots Of Love
TTITLE10=Otis Clay - I Can't Take It
TTITLE11=Quiet Elegance - How's Your Love Life Baby?
TTITLE12=Bobby McClure - I Ain't Gonna Turn You Loose
TTITLE13=Al Green - Belle
TTITLE14=Willie Walker - Reaching For The Real Thing
TTITLE15=O.V. Wright - Your Good Thing Us About To End
TTITLE16=O.V. Wright - I Don't Know Why
TTITLE17=O.V. Wright - Sacrifice
TTITLE18=O.V. Wright - Eight Men, Four Women (Live)
EXTD=
EXTT0=
EXTT1=
EXTT2=
EXTT3=
EXTT4=
EXTT5=
EXTT6=
EXTT7=
EXTT8=
EXTT9=
EXTT10=
EXTT11=
EXTT12=
EXTT13=
EXTT14=
EXTT15=
EXTT16=
EXTT17=
EXTT18=
PLAYORDER=
